<svg width="227" height="33" viewBox="0 0 227 33" fill="none" xmlns="http://www.w3.org/2000/svg">
<path d="M214.641 29.718C215.507 29.6932 216.238 29.557 216.832 29.3093C217.451 29.0617 217.922 28.6778 218.244 28.1578C218.591 27.6625 218.764 27.0186 218.764 26.2261V20.8397C218.764 19.5767 219.098 18.5737 219.767 17.8308C220.436 17.0631 221.451 16.5554 222.813 16.3077V16.0848C221.451 15.8372 220.436 15.3419 219.767 14.599C219.098 13.8312 218.764 12.8159 218.764 11.5529V6.12933C218.764 5.31209 218.603 4.65581 218.281 4.16051C217.959 3.66522 217.489 3.29374 216.869 3.04609C216.275 2.79844 215.532 2.67462 214.641 2.67462V0C215.78 0 216.795 0.123825 217.687 0.371474C218.603 0.619125 219.383 0.9906 220.027 1.4859C220.671 1.95643 221.154 2.56317 221.476 3.30612C221.822 4.04907 221.996 4.91585 221.996 5.90645V11.33C221.996 12.172 222.169 12.853 222.516 13.3731C222.863 13.8684 223.37 14.2399 224.039 14.4875C224.732 14.7104 225.562 14.8218 226.528 14.8218V17.5336C225.562 17.5336 224.732 17.6574 224.039 17.9051C223.37 18.128 222.863 18.487 222.516 18.9823C222.169 19.4776 221.996 20.1463 221.996 20.9883V26.5233C221.996 27.8358 221.686 28.9255 221.067 29.7923C220.448 30.659 219.581 31.3029 218.467 31.7239C217.377 32.1697 216.102 32.3926 214.641 32.3926V29.718Z" fill="#4B60EA"/>
<path d="M209.595 26.5227H206.178V0.519531H209.595V26.5227Z" fill="#D6FA58"/>
<path d="M189.45 15.6389V12.3699H199.963V20.5052L194.651 25.9288C193.499 26.486 191.791 26.8946 189.822 26.8946C182.318 26.8946 176.932 21.1739 176.932 14.3016C176.932 9.76963 179.383 6.94642 182.095 4.19751L185.03 1.18857C185.847 0.742798 187.704 0.148438 189.933 0.148438C193.945 0.148438 197.548 2.04296 199.48 4.60613L196.88 7.20645C195.543 5.34908 193.091 3.566 189.785 3.566C184.51 3.566 180.461 8.06085 180.461 13.5958C180.461 19.0193 184.324 23.5885 189.97 23.5885C192.794 23.5885 195.022 22.4369 196.545 20.8767V15.6389H189.45Z" fill="#D6FA58"/>
<path d="M174.522 26.5227H170.77L168.393 19.7619H156.803L154.388 26.5227H150.822L160.146 0.519531H165.198L174.522 26.5227ZM162.635 3.30559L157.955 16.4929H167.241L162.635 3.30559Z" fill="#D6FA58"/>
<path d="M148.782 32.3926C147.271 32.3678 145.959 32.1449 144.844 31.7239C143.754 31.3029 142.912 30.6466 142.318 29.7551C141.724 28.8883 141.427 27.7987 141.427 26.4861V21.0255C141.427 20.1834 141.253 19.5148 140.906 19.0195C140.56 18.4994 140.052 18.128 139.383 17.9051C138.715 17.6574 137.885 17.5336 136.895 17.5336V14.8218C137.885 14.7971 138.715 14.6732 139.383 14.4504C140.052 14.2275 140.56 13.8684 140.906 13.3731C141.253 12.853 141.427 12.1844 141.427 11.3671V5.8693C141.427 4.8787 141.6 4.02431 141.947 3.30612C142.318 2.56317 142.826 1.95643 143.47 1.4859C144.138 0.9906 144.918 0.619125 145.81 0.371474C146.701 0.123825 147.692 0 148.782 0V2.67462C147.94 2.69938 147.209 2.83559 146.59 3.08324C145.971 3.33089 145.488 3.70236 145.141 4.19766C144.819 4.69296 144.658 5.34923 144.658 6.16648V11.5157C144.658 12.7787 144.324 13.7941 143.655 14.5618C142.987 15.3047 141.971 15.8 140.609 16.0477V16.2706C141.996 16.5182 143.011 17.0259 143.655 17.7936C144.324 18.5366 144.658 19.5396 144.658 20.8026V26.2632C144.658 27.0557 144.819 27.6996 145.141 28.1949C145.463 28.715 145.934 29.0865 146.553 29.3093C147.172 29.557 147.915 29.6932 148.782 29.718V32.3926Z" fill="#4B60EA"/>
<path d="M126.174 26.895C121.01 26.895 116.961 23.4031 116.961 17.9796C116.961 15.4535 117.964 13.0761 120.23 10.773L122.793 8.13549C123.276 7.87546 124.428 7.42969 126.174 7.42969C129.851 7.42969 134.049 9.76997 134.532 15.3049L131.783 18.2396H120.193C120.601 21.62 123.127 23.7374 126.322 23.7374C128.774 23.7374 130.408 22.623 131.448 21.5829L133.194 24.0346C131.523 25.7434 129.034 26.895 126.174 26.895ZM120.379 15.2678H131.337C130.854 12.6675 129.182 10.4386 125.802 10.4386C123.127 10.4386 121.01 12.3332 120.379 15.2678Z" fill="#6D88C7"/>
<path d="M105.778 7.42969C109.567 7.42969 112.205 10.3272 112.205 14.1162V26.5235H108.899V15.2307C108.899 12.8161 107.524 10.4386 104.775 10.4386C102.138 10.4386 100.652 12.6303 100.652 15.2307V26.5235H97.42V15.2307C97.42 12.8161 96.0456 10.4386 93.2595 10.4386C90.5106 10.4386 89.1733 12.6303 89.1733 15.2307V26.5235H85.8672V7.80116H89.1733V10.3272L91.4393 8.06119C91.8108 7.87546 92.6652 7.42969 94.2997 7.42969C96.9 7.42969 98.9431 8.84129 99.8718 10.9587L102.844 8.02405C103.326 7.76401 104.329 7.42969 105.778 7.42969Z" fill="#6D88C7"/>
<path d="M71.6934 26.895C66.4184 26.895 62.1465 22.7716 62.1465 17.6824C62.1465 15.2678 63.038 13.0018 65.044 10.9587L67.7929 8.13549C68.3873 7.80116 69.6874 7.42969 71.359 7.42969C76.5968 7.42969 80.8688 11.5159 80.8688 16.6423C80.8688 18.9825 80.0887 21.2485 77.897 23.4402L75.2595 26.152C74.368 26.5606 73.1793 26.895 71.6934 26.895ZM72.102 23.8489C74.9624 23.8489 77.7113 21.5457 77.7113 17.6824C77.7113 13.559 74.368 10.4386 70.9133 10.4386C68.0529 10.4386 65.3412 12.7418 65.3412 16.6051C65.3412 20.7285 68.6473 23.8489 72.102 23.8489Z" fill="#6D88C7"/>
<path d="M52.0623 26.895C46.3044 26.895 42.7754 22.623 42.7754 17.9053C42.7754 15.1564 44.187 12.8532 46.3787 10.5872L48.719 8.20978C49.4248 7.80116 50.6135 7.42969 52.248 7.42969C55.3684 7.42969 57.8944 8.95273 59.1203 10.5129L56.9286 12.8532C55.9999 11.7016 54.2911 10.6244 52.0994 10.6244C48.7561 10.6244 46.0444 13.5219 46.0444 17.2366C46.0444 20.8399 48.719 23.626 52.1737 23.626C55.1083 23.626 56.5942 22.1029 57.4115 21.3228L59.4174 23.6631C57.8201 25.5576 55.2198 26.895 52.0623 26.895Z" fill="#6D88C7"/>
<path d="M31.2731 26.895C26.1096 26.895 22.0605 23.4031 22.0605 17.9796C22.0605 15.4535 23.0635 13.0761 25.3295 10.773L27.8927 8.13549C28.3756 7.87546 29.5272 7.42969 31.2731 7.42969C34.9507 7.42969 39.1484 9.76997 39.6313 15.3049L36.8824 18.2396H25.2924C25.701 21.62 28.227 23.7374 31.4217 23.7374C33.8734 23.7374 35.5079 22.623 36.5481 21.5829L38.294 24.0346C36.6223 25.7434 34.1335 26.895 31.2731 26.895ZM25.4781 15.2678H36.4366C35.9537 12.6675 34.2821 10.4386 30.9016 10.4386C28.227 10.4386 26.1096 12.3332 25.4781 15.2678Z" fill="#6D88C7"/>
<path d="M9.13827 7.42896C14.3761 7.42896 18.4251 11.5152 18.4251 16.6787C18.4251 18.9818 17.6079 21.285 15.2676 23.7367L12.853 26.2256C12.1472 26.597 11.0328 26.8942 9.73263 26.8942C6.98372 26.8942 4.60628 25.7055 3.30612 23.8853V26.5227H0V0.519531H3.30612V10.6979L5.94359 8.02332C6.5751 7.65184 7.87526 7.42896 9.13827 7.42896ZM9.73263 23.8481C12.7044 23.8481 15.2676 21.545 15.2305 17.6817C15.1933 12.9268 11.7014 10.4379 8.61821 10.4379C5.57212 10.4379 3.04609 12.7782 3.04609 16.6415C3.12039 21.3964 6.61225 23.8481 9.73263 23.8481Z" fill="#6D88C7"/>
</svg>
